<svg width="963" height="426" xmlns="http://www.w3.org/2000/svg" xmlns:svg="http://www.w3.org/2000/svg">
	<g class="layer">
		<title>Layer 1</title>
		<!-- Đầu -->
		<circle cx="200" cy="200" r="100" fill="#1E90FF" stroke="black" stroke-width="2"/>

		<!-- Mặt trắng -->
		<circle cx="200" cy="220" r="80" fill="rgb(255,255,255)" stroke="rgb(0,0,0)" stroke-width="2"/>

		<!-- Mắt trái -->
		<circle cx="180" cy="170" r="15" fill="rgb(255,255,255)" stroke="black" stroke-width="2"/>
		<circle cx="180" cy="170" r="5" fill="black"/>

		<!-- Mắt phải -->
		<circle cx="220" cy="170" r="15" fill="rgb(255,255,255)" stroke="black" stroke-width="2"/>
		<circle cx="220" cy="170" r="5" fill="black"/>

		<!-- Mũi đỏ -->
		<circle cx="200" cy="190" r="7" fill="rgb(255,51,51)" stroke="black" stroke-width="2"/>

		<!-- Miệng -->
		<polyline points="170,220 200,240 230,220" fill="none" stroke="black" stroke-width="2"/>

		<!-- Râu trái -->
		<line x1="140" y1="190" x2="180" y2="190" stroke="black" stroke-width="2"/>
		<line x1="140" y1="200" x2="180" y2="195" stroke="black" stroke-width="2"/>
		<line x1="140" y1="180" x2="180" y2="185" stroke="black" stroke-width="2"/>

		<!-- Râu phải -->
		<line x1="220" y1="190" x2="260" y2="190" stroke="black" stroke-width="2"/>
		<line x1="220" y1="195" x2="260" y2="200" stroke="black" stroke-width="2"/>
		<line x1="220" y1="185" x2="260" y2="180" stroke="black" stroke-width="2"/>

		<!-- Cổ đỏ -->
		<line x1="160" y1="270" x2="240" y2="270" stroke="rgb(255,51,51)" stroke-width="5"/>

		<!-- Chuông cổ -->
		<circle cx="200" cy="275" r="10" fill="rgb(255,255,102)" stroke="black" stroke-width="2"/>
		<line x1="200" y1="275" x2="200" y2="285" stroke="black" stroke-width="2"/>
		<!-- Khung nhạc: 5 dòng kẻ -->
		<line x1="340" y1="60" x2="700" y2="60" stroke="black" stroke-width="1"/>
		<line x1="340" y1="80" x2="700" y2="80" stroke="black" stroke-width="1"/>
		<line x1="340" y1="100" x2="700" y2="100" stroke="black" stroke-width="1"/>
		<line x1="340" y1="120" x2="700" y2="120" stroke="black" stroke-width="1"/>
		<line x1="340" y1="140" x2="700" y2="140" stroke="black" stroke-width="1"/>

		<!-- Nốt nhạc 1 -->
		<circle cx="370" cy="130" r="7" fill="black"/>
		<line x1="377" y1="130" x2="377" y2="90" stroke="black" stroke-width="2"/>
		<polygon points="377,90 387,100 377,100" fill="black"/>

		<!-- Nốt nhạc 2 -->
		<circle cx="440" cy="110" r="7" fill="black"/>
		<line x1="447" y1="110" x2="447" y2="70" stroke="black" stroke-width="2"/>
		<polygon points="447,70 457,80 447,80" fill="black"/>

		<!-- Nốt nhạc 3 (nốt đôi) -->
		<circle cx="520" cy="130" r="7" fill="black"/>
		<circle cx="540" cy="120" r="7" fill="black"/>
		<line x1="527" y1="130" x2="527" y2="90" stroke="black" stroke-width="2"/>
		<line x1="547" y1="120" x2="547" y2="80" stroke="black" stroke-width="2"/>
		<!-- Thanh nối -->
		<line x1="527" y1="90" x2="547" y2="80" stroke="black" stroke-width="2"/>
		<!-- Thân micro (polygon) -->
		<polygon points="95,175 105,175 105,250 95,250" fill="rgb(100,100,100)" stroke="black" stroke-width="2"/>

		<!-- Đầu micro (ellipse) -->
		<ellipse cx="100" cy="160" rx="15" ry="20" fill="rgb(200,200,200)" stroke="black" stroke-width="2"/>

		<!-- Lưới micro (line) -->
		<line x1="85" y1="155" x2="115" y2="155" stroke="black" stroke-width="1"/>
		<line x1="85" y1="160" x2="115" y2="160" stroke="black" stroke-width="1"/>
		<line x1="85" y1="165" x2="115" y2="165" stroke="black" stroke-width="1"/>

		<!-- Tay cầm (line) -->
		<line x1="100" y1="250" x2="100" y2="275" stroke="black" stroke-width="4"/>

		<!-- Chân đế (polygon) -->
		<polygon points="90,275 110,275 120,290 80,290" fill="rgb(50,50,50)" stroke="black" stroke-width="2"/>
	</g>
</svg>
